<svg xmlns="http://www.w3.org/2000/svg" width="42mm" height="25mm" version="1.1" viewBox="0 0 42 25"><g fill="#1278aa" stroke="#1278aa"><rect width="4.6" height="18.762" x="3.281" y="2.869" stroke-width=".028"/><rect width="1.272" height="18.762" x="9.458" y="2.862" stroke-width=".015"/><rect width="1.272" height="18.762" x="12.318" y="2.862" stroke-width=".015"/><rect width="2.683" height="18.762" x="15.228" y="2.866" stroke-width=".022"/><rect width="1.272" height="18.762" x="19.348" y="2.862" stroke-width=".015"/><rect width="4.6" height="18.762" x="22.108" y="2.869" stroke-width=".028"/><g stroke-width=".015"><rect width="1.272" height="18.762" x="28.285" y="2.862"/><rect width="1.272" height="18.762" x="31.144" y="2.862"/><rect width="1.272" height="18.762" x="33.8" y="2.862"/></g><rect width="2.683" height="18.762" x="36.266" y="2.866" stroke-width=".022"/></g><g fill="#555" stroke="#555"><rect width="1.272" height="22.238" x=".324" y="1.391" stroke-width=".016"/><rect width="1.272" height="3.994" x=".333" y="-4.31" stroke-width=".007" transform="rotate(90)"/><rect width="1.272" height="3.994" x="23.063" y="-4.298" stroke-width=".007" transform="rotate(90)"/><rect width="1.272" height="22.238" x="-41.871" y="1.391" stroke-width=".016" transform="scale(-1,1)"/><rect width="1.272" height="3.994" x=".333" y="37.885" stroke-width=".007" transform="matrix(0,1,1,0,0,0)"/><rect width="1.272" height="3.994" x="23.063" y="37.898" stroke-width=".007" transform="matrix(0,1,1,0,0,0)"/></g></svg>